HIERARCHY
ROOT Hips
{
  OFFSET 61.7621 91.3739 24.0114
  CHANNELS 6 Xposition Yposition Zposition Zrotation Xrotation Yrotation
  JOINT spine
  {
    OFFSET 0 6.84637 0.3937
    CHANNELS 3 Zrotation Xrotation Yrotation
    JOINT spine1
    {
      OFFSET 0 9.49621 0
      CHANNELS 3 Zrotation Xrotation Yrotation
      JOINT spine2
      {
        OFFSET 0 9.09909 0
        CHANNELS 3 Zrotation Xrotation Yrotation
        JOINT Neck
        {
          OFFSET 0 23.3612 1.11378
          CHANNELS 3 Zrotation Xrotation Yrotation
          JOINT Head
          {
            OFFSET 0 7.05802 0
            CHANNELS 3 Zrotation Xrotation Yrotation
            End Site
            {
              OFFSET 0 17.0844 -5.63419
            }
          }
        }
        JOINT RightShoulder
        {
          OFFSET -3.83136 9.82631 -0.533491
          CHANNELS 3 Zrotation Xrotation Yrotation
          JOINT RightArm
          {
            OFFSET 0 12.8881 0
            CHANNELS 3 Zrotation Xrotation Yrotation
            JOINT RightArmRoll
            {
              OFFSET 0 6.50616 0
              CHANNELS 3 Zrotation Xrotation Yrotation
              JOINT RightForeArm
              {
                OFFSET 0 18.9501 0
                CHANNELS 3 Zrotation Xrotation Yrotation
                JOINT RightForeArmRoll
                {
                  OFFSET 0 7.30092 0
                  CHANNELS 3 Zrotation Xrotation Yrotation
                  JOINT RightHand
                  {
                    OFFSET 0 14.6514 0
                    CHANNELS 3 Zrotation Xrotation Yrotation
                    End Site
                    {
                      OFFSET 0 0 0
                    }
                  }
                }
              }
            }
          }
        }
        JOINT LeftShoulder
        {
          OFFSET 3.83136 9.82631 -0.533491
          CHANNELS 3 Zrotation Xrotation Yrotation
          JOINT LeftArm
          {
            OFFSET 0 12.8881 0
            CHANNELS 3 Zrotation Xrotation Yrotation
            JOINT LeftArmRoll
            {
              OFFSET 0 6.50617 0
              CHANNELS 3 Zrotation Xrotation Yrotation
              JOINT LeftForeArm
              {
                OFFSET 0 18.9501 0
                CHANNELS 3 Zrotation Xrotation Yrotation
                JOINT LeftForeArmRoll
                {
                  OFFSET 0 7.30092 0
                  CHANNELS 3 Zrotation Xrotation Yrotation
                  JOINT LeftHand
                  {
                    OFFSET 0 14.6514 0
                    CHANNELS 3 Zrotation Xrotation Yrotation
                    End Site
                    {
                      OFFSET 0 0 0
                    }
                  }
                }
              }
            }
          }
        }
      }
    }
  }
  JOINT RightUpLeg
  {
    OFFSET -6.06837 -1.11278 -0.933477
    CHANNELS 3 Zrotation Xrotation Yrotation
    JOINT RightUpLegRoll
    {
      OFFSET 0 17.1796 0
      CHANNELS 3 Zrotation Xrotation Yrotation
      JOINT RightLeg
      {
        OFFSET 0 -21.2743 0
        CHANNELS 3 Zrotation Xrotation Yrotation
        JOINT RightLegRoll
        {
          OFFSET 0 21.3439 0
          CHANNELS 3 Zrotation Xrotation Yrotation
          JOINT RightFoot
          {
            OFFSET 0 17.7652 0
            CHANNELS 3 Zrotation Xrotation Yrotation
            JOINT RightToeBase
            {
              OFFSET 0 14.8508 0
              CHANNELS 3 Zrotation Xrotation Yrotation
              End Site
              {
                OFFSET 0.0062947 7.19214 -0.829005
              }
            }
          }
        }
      }
    }
  }
  JOINT LeftUpLeg
  {
    OFFSET 6.06837 -1.11278 -0.933477
    CHANNELS 3 Zrotation Xrotation Yrotation
    JOINT LeftUpLegRoll
    {
      OFFSET 0 17.1797 0
      CHANNELS 3 Zrotation Xrotation Yrotation
      JOINT LeftLeg
      {
        OFFSET 0 21.2742 0
        CHANNELS 3 Zrotation Xrotation Yrotation
        JOINT LeftLegRoll
        {
          OFFSET 0 21.5412 0
          CHANNELS 3 Zrotation Xrotation Yrotation
          JOINT LeftFoot
          {
            OFFSET 0 17.5679 0
            CHANNELS 3 Zrotation Xrotation Yrotation
            JOINT LeftToeBase
            {
              OFFSET 0 14.8508 0
              CHANNELS 3 Zrotation Xrotation Yrotation
              End Site
              {
                OFFSET -0.0282102 7.19213 -0.829005
              }
            }
          }
        }
      }
    }
  }
}
MOTION
Frames: 6
Frame Time: 0.00208333
59.2407 84.8245 9.74139 4.58794 7.46254 -2.58478 -0.638132 -2.5934 -0.0891139 -1.27713 -1.18357 -0.124245 -1.27564 0.461261 -0.10288 -0.898628 -2.46466 -1.44192 4.63674 13.9907 -1.76893 17.24 -20.2788 -19.9433 -17.5444 55.0083 124.139 4.57376e-007 3.88241e-007 -7.31331e-006 -10.0206 24.609 2.87274 -1.31044e-005 -2.32888e-007 -3.00544 8.02899 -4.95142 0.697669 -7.36086 -18.6206 19.9491 28.8836 55.9819 -135.872 1.0364e-007 4.13987e-008 1.92324e-006 13.8938 15.9006 -5.73206 5.39996e-006 -3.60118e-006 3.0002 -8.02921 -4.95144 -0.697652 166.025 26.1918 1.96809 180 7.01484e-015 178.677 -168.071 42.907 174.082 -1.26887e-006 2.66433e-006 2.70145 -29.7486 77.2377 32.4187 8.05438 29.1462 1.0799 -169.597 21.2401 -6.24124 4.54188e-006 -4.6773e-006 -1.13055 -1.80746 -43.6829 0.163381 4.11793e-006 -1.63235e-006 -1.65029 25.6617 74.889 -27.717 -7.47047 31.9607 -5.12439 
59.2425 85.0926 9.85955 4.52062 7.27279 -2.52007 -0.622001 -2.58875 -0.0869432 -1.24484 -1.17427 -0.12119 -1.24338 0.470571 -0.100366 -0.946995 -2.0732 -1.42487 4.6435 13.7837 -1.76191 17.3655 -20.1838 -19.7729 -16.4241 55.4157 123.049 4.57376e-007 3.88241e-007 -7.31331e-006 -9.9297 24.4288 2.80288 -1.31044e-005 -2.32887e-007 -3.00544 8.02899 -4.95142 0.697669 -7.58025 -18.4607 19.6426 28.0389 56.5112 -135.14 1.0364e-007 4.13987e-008 1.92324e-006 13.7603 15.6285 -5.627 5.39996e-006 -3.60118e-006 3.00019 -8.02921 -4.95144 -0.697652 166.086 25.553 1.92081 180 7.01485e-015 178.68 -168.384 42.0465 174.303 -1.26887e-006 2.66441e-006 2.53204 -28.3506 76.5705 30.8406 8.07048 29.0003 0.899493 -169.65 20.7114 -6.0932 4.54188e-006 -4.6773e-006 -1.14182 -1.70747 -42.926 0.237033 4.11793e-006 -1.63235e-006 -1.56695 24.8913 74.359 -26.8383 -7.5456 31.6936 -4.74005 
59.3051 85.2491 10.0272 4.45013 7.08284 -2.4546 -0.602889 -2.58709 -0.0832609 -1.20655 -1.17098 -0.115395 -1.20516 0.47387 -0.0952111 -1.04468 -1.58843 -1.40451 4.68475 13.4876 -1.75933 17.4363 -20.0741 -19.5944 -15.1797 55.8329 121.877 4.57376e-007 3.88241e-007 -7.31331e-006 -9.84091 24.2485 2.7354 -1.31044e-005 -2.32887e-007 -3.00544 8.02899 -4.95142 0.697669 -7.85774 -18.2804 19.2916 27.1376 57.0245 -134.323 1.0364e-007 4.13987e-008 1.92324e-006 13.613 15.3668 -5.51875 5.39996e-006 -3.60118e-006 3.00019 -8.02921 -4.95144 -0.697652 166.148 24.8961 1.86934 180 7.01485e-015 178.683 -168.703 41.1405 174.526 -1.26887e-006 2.6645e-006 2.35065 -26.9995 75.843 29.2967 8.09011 28.8071 0.662498 -169.7 20.1735 -5.93907 4.54188e-006 -4.6773e-006 -1.15381 -1.59744 -42.1467 0.313879 4.11792e-006 -1.63235e-006 -1.48178 24.1631 73.8201 -26.0005 -7.63458 31.3527 -4.25706 
59.281 85.5613 10.1296 4.37731 6.89297 -2.38894 -0.581305 -2.58811 -0.0782621 -1.16328 -1.17304 -0.107204 -1.16199 0.471828 -0.0877431 -1.18203 -1.02161 -1.38288 4.75175 13.1129 -1.7614 17.4622 -19.9511 -19.4081 -13.8196 56.2538 120.623 4.57376e-007 3.88241e-007 -7.31331e-006 -9.75318 24.0687 2.66986 -1.31044e-005 -2.32887e-007 -3.00544 8.02899 -4.95142 0.697669 -8.18416 -18.0824 18.903 26.1789 57.5221 -133.423 1.0364e-007 4.13987e-008 1.92324e-006 13.4536 15.1161 -5.40798 5.39996e-006 -3.60118e-006 3.00019 -8.02921 -4.95144 -0.697652 166.212 24.2252 1.81496 180 7.01486e-015 178.686 -169.027 40.1967 174.748 -1.26887e-006 2.66459e-006 2.15981 -25.7268 75.0653 27.8216 8.11133 28.5736 0.378271 -169.748 19.6278 -5.78024 4.54188e-006 -4.67731e-006 -1.16635 -1.47991 -41.3482 0.392523 4.11793e-006 -1.63236e-006 -1.39541 23.4794 73.2761 -25.2069 -7.73057 30.9481 -3.69339 
59.2043 86.2516 10.1446 4.30298 6.70345 -2.32367 -0.557758 -2.59146 -0.0721419 -1.11605 -1.17977 -0.096959 -1.11489 0.465111 -0.0782883 -1.34933 -0.384035 -1.36199 4.83572 12.6702 -1.76832 17.4532 -19.8161 -19.2141 -12.3531 56.6722 119.288 4.57376e-007 3.88241e-007 -7.31331e-006 -9.66549 23.8901 2.60582 -1.31044e-005 -2.32887e-007 -3.00544 8.02899 -4.95142 0.697669 -8.55045 -17.869 18.4839 25.1628 58.0047 -132.446 1.0364e-007 4.13987e-008 1.92324e-006 13.2833 14.8771 -5.29534 5.39996e-006 -3.60118e-006 3.00019 -8.02921 -4.95144 -0.697652 166.276 23.5441 1.75891 180 7.01487e-015 178.689 -169.351 39.2227 174.968 -1.26887e-006 2.66468e-006 1.96207 -24.5521 74.2483 26.4375 8.1323 28.3068 0.056115 -169.795 19.0756 -5.61802 4.54188e-006 -4.67731e-006 -1.17928 -1.3573 -40.5335 0.47165 4.11792e-006 -1.63237e-006 -1.30847 22.8417 72.7308 -24.4596 -7.82712 30.4903 -3.06675 
59.2307 86.5492 10.2916 4.22795 6.51456 -2.25935 -0.532755 -2.5968 -0.0650955 -1.0659 -1.19051 -0.0850053 -1.06487 0.454389 -0.0671734 -1.53674 0.313027 -1.34384 4.92782 12.1701 -1.78027 17.4191 -19.6705 -19.0127 -10.79 57.0819 117.873 4.57376e-007 3.88241e-007 -7.31331e-006 -9.57685 23.7132 2.54287 -1.31044e-005 -2.32888e-007 -3.00544 8.02899 -4.95142 0.697669 -8.94772 -17.6429 18.0412 24.0891 58.4727 -131.396 1.0364e-007 4.13987e-008 1.92324e-006 13.1035 14.6504 -5.1815 5.39996e-006 -3.60118e-006 3.00018 -8.02921 -4.95144 -0.697652 166.338 22.8568 1.70238 180 7.01488e-015 178.693 -169.673 38.2261 175.184 -1.26887e-006 2.66474e-006 1.75996 -23.4856 73.4035 25.1578 8.15135 28.0136 -0.294778 -169.839 18.5184 -5.45371 4.54188e-006 -4.67731e-006 -1.19243 -1.23192 -39.7055 0.550031 4.11792e-006 -1.63237e-006 -1.22159 22.2502 72.1879 -23.76 -7.91852 29.9898 -2.39439 
